A young girl is institutionalized by her abusive stepfather. Retreating to an alternative reality as a coping strategy, she envisions a plan which will help her escape from the mental facility.



SAMPLE INCLUDED

General
Complete name : F:SUCKER PUNCH EXTENDED CUT 720p BRRip [MKV AC3][RoB]PR3DATOR RG
Format : Matroska
File size : 2.72 GiB
Duration : 2h 7mn
Overall bit rate : 3 056 Kbps
Writing application : Lavf52.13.0
Writing library : Lavf52.13.0

Video
ID : 1
Format : MPEG-4 Visual
Format profile : Simple@L1
Format settings, BVOP : No
Format settings, QPel : No
Format settings, GMC : No warppoints
Format settings, Matrix : Default (H.263)
Codec ID : V_MPEG4/ISO/ASP
Codec ID/Info : Advanced Simple Profile
Duration : 2h 7mn
Bit rate : 2 675 Kbps
Width : 720 pixels
Height : 432 pixels
Display aspect ratio : 16:9
Frame rate mode : Constant
Frame rate : 25.000 fps
Color space : YUV
Chroma subsampling : 4:2:0
Bit depth : 8 bits
Scan type : Progressive
Compression mode : Lossy
Bits/(Pixel*Frame) : 0.344
Stream size : 2.38 GiB (88%)
Writing library : Lavc51.54.0
Language : English

Audio
ID : 2
Format : AC-3
Format/Info : Audio Coding 3
Mode extension : CM (complete main)
Codec ID : A_AC3
Duration : 2h 7mn
Bit rate mode : Constant
Bit rate : 320 Kbps
Channel(s) : 6 channels
Channel positions : Front: L C R, Side: L R, LFE
Sampling rate : 48.0 KHz
Bit depth : 16 bits
Compression mode : Lossy
Stream size : 292 MiB (10%)
Language : English

 
http://img819.imageshack.us/img819/149/bscap0001az.jpg
 
http://img69.imageshack.us/img69/754/bscap0002uj.jpg
 
http://img820.imageshack.us/img820/7905/bscap0003hy.jpg
 
http://img832.imageshack.us/img832/1550/bscap0004jg.jpg
 
http://img864.imageshack.us/img864/5168/bscap0005s.jpg